<svg width="48" height="48" viewBox="0 0 48 48" fill="none" xmlns="http://www.w3.org/2000/svg">
<g id="Frame 270">
<g id="Group 402">
<g id="Group 401">
<path id="Vector" d="M40.1826 30.1311C40.2522 30.1212 40.3232 30.1271 40.3903 30.1485C40.4573 30.1699 40.5187 30.2061 40.5697 30.2546C40.6208 30.303 40.6603 30.3623 40.6852 30.4281C40.7101 30.494 40.7198 30.5645 40.7135 30.6346L40.6403 36.9879C40.6411 37.1435 40.5875 37.2944 40.4889 37.4147C40.3903 37.535 40.2529 37.6172 40.1002 37.647L16.5547 40.9427C16.4852 40.9496 16.4151 40.9412 16.3492 40.918C16.2834 40.8949 16.2235 40.8575 16.1737 40.8086C16.1239 40.7597 16.0855 40.7004 16.0611 40.635C16.0368 40.5696 16.0271 40.4996 16.0328 40.43L16.1152 34.0218C16.1162 33.8691 16.1694 33.7214 16.266 33.6031C16.3626 33.4848 16.4968 33.4032 16.6462 33.3719L40.1826 30.1311ZM40.1826 37.052L40.2558 30.6987L16.637 33.9577L16.5913 34.0218L16.5089 40.3751L16.5638 40.43L40.1093 37.1161L40.1551 37.052" fill="white"/>
<path id="Vector_2" d="M16.7561 24.2726L40.2925 20.9678L40.3474 21.0135L40.2742 27.3668L40.2192 27.4309L16.6737 30.7448L16.6279 30.6899L16.7012 24.3367L16.7561 24.2726ZM38.9193 25.0599V23.7141L30.2865 24.9317V26.2774L38.9284 25.0599M23.9333 27.376C24.161 27.326 24.3649 27.1999 24.5113 27.0185C24.6578 26.8371 24.738 26.6113 24.7389 26.3781C24.7493 26.273 24.7359 26.1668 24.6997 26.0675C24.6635 25.9682 24.6055 25.8784 24.5299 25.8045C24.4543 25.7307 24.3631 25.6748 24.263 25.641C24.1629 25.6072 24.0565 25.5963 23.9516 25.6091C23.7229 25.6588 23.5179 25.7845 23.3699 25.9658C23.2219 26.147 23.1398 26.373 23.1368 26.607C23.1279 26.7126 23.1426 26.8189 23.1799 26.9181C23.2172 27.0174 23.2761 27.107 23.3524 27.1807C23.4286 27.2543 23.5203 27.31 23.6208 27.3438C23.7213 27.3776 23.828 27.3886 23.9333 27.376ZM21.1228 27.7696C21.3515 27.7199 21.5565 27.5942 21.7045 27.413C21.8525 27.2318 21.9346 27.0057 21.9376 26.7718C21.948 26.6666 21.9346 26.5605 21.8984 26.4612C21.8623 26.3619 21.8042 26.272 21.7286 26.1982C21.653 26.1243 21.5618 26.0684 21.4617 26.0346C21.3616 26.0008 21.2552 25.9899 21.1503 26.0028C20.9216 26.0525 20.7166 26.1782 20.5686 26.3594C20.4206 26.5406 20.3385 26.7667 20.3355 27.0006C20.3268 27.1054 20.3414 27.2108 20.3782 27.3093C20.4149 27.4078 20.473 27.4969 20.5482 27.5704C20.6234 27.6439 20.7139 27.6998 20.8132 27.7342C20.9126 27.7687 21.0183 27.7808 21.1228 27.7696ZM18.3215 28.1266C18.5372 28.0808 18.7325 27.9672 18.8791 27.8025C19.0256 27.6379 19.1157 27.4307 19.1363 27.2112C19.145 27.1064 19.1304 27.001 19.0936 26.9025C19.0569 26.804 18.9988 26.7149 18.9236 26.6414C18.8484 26.568 18.7579 26.512 18.6586 26.4776C18.5592 26.4431 18.4535 26.4311 18.349 26.4422C18.1203 26.4919 17.9153 26.6176 17.7673 26.7988C17.6193 26.9801 17.5372 27.2061 17.5342 27.44C17.5256 27.5448 17.5401 27.6502 17.5769 27.7487C17.6136 27.8472 17.6717 27.9364 17.7469 28.0098C17.8221 28.0833 17.9126 28.1392 18.0119 28.1737C18.1113 28.2081 18.217 28.2202 18.3215 28.209" fill="#5DCCB3"/>
<path id="Vector_3" d="M16.866 14.5865L40.4115 11.2817V11.3275L40.3382 17.6808L40.2833 17.7449L16.7927 21.0588L16.7378 21.0039L16.811 14.6506L16.866 14.5865ZM39.0291 15.3738V14.0281L30.3872 15.2457V16.5914L39.02 15.3738M24.0431 17.6899C24.2718 17.6403 24.4768 17.5145 24.6248 17.3333C24.7728 17.1521 24.8549 16.926 24.8579 16.6921C24.8668 16.5865 24.8521 16.4802 24.8148 16.3809C24.7775 16.2817 24.7186 16.192 24.6423 16.1184C24.5661 16.0448 24.4744 15.989 24.3739 15.9553C24.2734 15.9215 24.1667 15.9105 24.0614 15.9231C23.8321 15.9699 23.6263 16.0951 23.4793 16.2772C23.3322 16.4593 23.2532 16.6869 23.2558 16.9209C23.2454 17.0261 23.2588 17.1322 23.295 17.2315C23.3312 17.3308 23.3892 17.4207 23.4648 17.4945C23.5404 17.5684 23.6316 17.6243 23.7317 17.6581C23.8318 17.6919 23.9382 17.7028 24.0431 17.6899ZM21.2418 18.0561C21.4703 18.0077 21.6752 17.8821 21.8219 17.7003C21.9687 17.5186 22.0483 17.2918 22.0474 17.0583C22.0578 16.9531 22.0444 16.847 22.0083 16.7477C21.9721 16.6484 21.9141 16.5585 21.8385 16.4847C21.7629 16.4108 21.6717 16.3549 21.5716 16.3211C21.4715 16.2873 21.365 16.2764 21.2601 16.2893C21.0308 16.3361 20.825 16.4613 20.678 16.6434C20.5309 16.8255 20.4519 17.0531 20.4545 17.2871C20.4442 17.3923 20.4575 17.4984 20.4937 17.5977C20.5299 17.697 20.5879 17.7869 20.6635 17.8607C20.7391 17.9346 20.8303 17.9905 20.9304 18.0243C21.0305 18.0581 21.137 18.069 21.2418 18.0561ZM18.4405 18.4498C18.669 18.4014 18.8739 18.2757 19.0206 18.094C19.1674 17.9122 19.247 17.6855 19.2461 17.4519C19.2565 17.3468 19.2432 17.2406 19.207 17.1413C19.1708 17.042 19.1128 16.9522 19.0372 16.8783C18.9616 16.8045 18.8704 16.7486 18.7703 16.7148C18.6702 16.6809 18.5637 16.6701 18.4588 16.6829C18.2295 16.7297 18.0237 16.8549 17.8767 17.037C17.7296 17.2191 17.6507 17.4467 17.6532 17.6808C17.6429 17.7859 17.6562 17.8921 17.6924 17.9914C17.7286 18.0906 17.7866 18.1805 17.8622 18.2544C17.9378 18.3282 18.029 18.3841 18.1291 18.4179C18.2292 18.4517 18.3357 18.4626 18.4405 18.4498Z" fill="#5DCCB3"/>
<g id="Group 400">
<path id="Vector_4" d="M41.8486 6.47585C42.0133 6.45585 42.1804 6.47311 42.3376 6.52635C42.4947 6.57959 42.6379 6.66746 42.7565 6.78346C42.8752 6.89946 42.9662 7.04063 43.023 7.19654C43.0798 7.35246 43.1008 7.51913 43.0845 7.68425L42.7 40.1646C42.6991 40.5284 42.573 40.8807 42.343 41.1625C42.1129 41.4442 41.7929 41.6382 41.4367 41.7117L15.1173 45.3736C14.9534 45.3933 14.7872 45.3762 14.6308 45.3235C14.4744 45.2708 14.3317 45.1837 14.2133 45.0688C14.0948 44.9538 14.0035 44.8139 13.9461 44.6591C13.8887 44.5044 13.8666 44.3387 13.8814 44.1743L14.2659 11.7306C14.2668 11.3668 14.3929 11.0145 14.6229 10.7327C14.853 10.451 15.173 10.257 15.5293 10.1834L41.8486 6.47585ZM40.6402 36.988L40.7134 30.6347C40.7197 30.5646 40.71 30.494 40.6851 30.4282C40.6602 30.3624 40.6207 30.3031 40.5696 30.2547C40.5186 30.2062 40.4572 30.17 40.3902 30.1486C40.3232 30.1272 40.2521 30.1213 40.1825 30.1312L16.6461 33.436C16.4967 33.4674 16.3625 33.549 16.2659 33.6673C16.1693 33.7855 16.1161 33.9333 16.1151 34.086L16.0328 40.4942C16.027 40.5638 16.0367 40.6337 16.061 40.6991C16.0854 40.7646 16.1238 40.8238 16.1736 40.8727C16.2234 40.9217 16.2833 40.959 16.3491 40.9822C16.415 41.0054 16.4851 41.0138 16.5546 41.0068L40.1001 37.6471C40.2528 37.6173 40.3902 37.5351 40.4888 37.4148C40.5874 37.2945 40.641 37.1435 40.6402 36.988ZM40.8691 17.6169L40.9423 11.2637C40.95 11.1929 40.9414 11.1212 40.9172 11.0542C40.893 10.9873 40.8537 10.9267 40.8025 10.8772C40.7512 10.8277 40.6893 10.7907 40.6215 10.7688C40.5537 10.7469 40.4818 10.7408 40.4113 10.751L16.875 14.0558C16.724 14.0875 16.5886 14.1705 16.4918 14.2906C16.3951 14.4108 16.3428 14.5607 16.344 14.715L16.2616 21.1231C16.2573 21.192 16.268 21.2609 16.293 21.3252C16.3179 21.3895 16.3566 21.4476 16.4062 21.4955C16.4558 21.5434 16.5152 21.5799 16.5804 21.6025C16.6455 21.6252 16.7148 21.6334 16.7834 21.6266L40.329 18.3127C40.4801 18.2832 40.6164 18.2024 40.7148 18.0839C40.8132 17.9655 40.8677 17.8167 40.8691 17.6627M40.7501 27.3025L40.8141 20.9492C40.8219 20.8796 40.8136 20.8091 40.7898 20.7432C40.766 20.6773 40.7275 20.6178 40.6771 20.5691C40.6267 20.5205 40.5658 20.4841 40.4991 20.4627C40.4324 20.4413 40.3616 20.4355 40.2923 20.4457L16.756 23.7505C16.6065 23.7819 16.4723 23.8635 16.3757 23.9817C16.2791 24.1 16.2259 24.2478 16.225 24.4005L16.1518 30.8087C16.146 30.8782 16.1557 30.9482 16.18 31.0136C16.2044 31.079 16.2428 31.1383 16.2926 31.1872C16.3424 31.2361 16.4023 31.2735 16.4682 31.2967C16.534 31.3199 16.6041 31.3283 16.6736 31.3213L40.2099 28.0074C40.3634 27.9792 40.5019 27.8975 40.6008 27.7768C40.6997 27.6561 40.7526 27.5043 40.7501 27.3482" fill="#5DCCB3"/>
<path id="Vector_5" d="M38.8185 33.3994L38.8002 34.7451L30.1675 35.9535L30.1766 34.617L38.8185 33.3994Z" fill="white"/>
<path id="Vector_6" d="M18.9064 37.3089C19.1335 36.8572 19.01 36.3364 18.6305 36.1456C18.2511 35.9548 17.7594 36.1664 17.5323 36.6181C17.3052 37.0698 17.4287 37.5907 17.8081 37.7814C18.1876 37.9722 18.6793 37.7606 18.9064 37.3089Z" fill="white"/>
<path id="Vector_7" d="M16.637 33.9576L40.1825 30.6528L40.1092 37.0061L40.0635 37.0702L16.5637 40.4299L16.5088 40.375L16.5912 34.0217L16.637 33.9576ZM38.8001 34.7449V33.4084L30.1582 34.6168V35.9625L38.791 34.7449M23.8141 37.061C24.0435 37.0129 24.2495 36.8876 24.3978 36.706C24.546 36.5245 24.6276 36.2976 24.6289 36.0632C24.6378 35.9575 24.6231 35.8513 24.5858 35.752C24.5485 35.6528 24.4896 35.5631 24.4133 35.4895C24.3371 35.4159 24.2454 35.3601 24.1449 35.3264C24.0444 35.2926 23.9377 35.2816 23.8324 35.2942C23.6047 35.3442 23.4008 35.4702 23.2544 35.6516C23.1079 35.833 23.0277 36.0589 23.0268 36.292C23.0164 36.3972 23.0298 36.5033 23.066 36.6026C23.1022 36.7019 23.1602 36.7918 23.2358 36.8656C23.3114 36.9395 23.4026 36.9954 23.5027 37.0292C23.6028 37.063 23.7092 37.0739 23.8141 37.061ZM21.0128 37.4547C21.2422 37.4065 21.4482 37.2812 21.5965 37.0997C21.7447 36.9181 21.8263 36.6912 21.8276 36.4568C21.8365 36.3512 21.8218 36.2449 21.7845 36.1457C21.7472 36.0464 21.6883 35.9568 21.612 35.8831C21.5358 35.8095 21.4441 35.7538 21.3436 35.72C21.2431 35.6862 21.1364 35.6752 21.0311 35.6878C20.8026 35.7362 20.5978 35.8619 20.451 36.0436C20.3043 36.2254 20.2247 36.4521 20.2255 36.6857C20.2151 36.7908 20.2285 36.897 20.2647 36.9963C20.3009 37.0956 20.3589 37.1854 20.4345 37.2593C20.5101 37.3331 20.6013 37.389 20.7014 37.4228C20.8015 37.4567 20.9079 37.4675 21.0128 37.4547ZM18.2115 37.8483C18.4408 37.8015 18.6467 37.6763 18.7937 37.4942C18.9407 37.3121 19.0197 37.0845 19.0171 36.8505C19.0275 36.7453 19.0141 36.6392 18.978 36.5399C18.9418 36.4406 18.8838 36.3507 18.8082 36.2769C18.7326 36.203 18.6414 36.1471 18.5413 36.1133C18.4412 36.0795 18.3347 36.0686 18.2298 36.0815C18.0013 36.1299 17.7965 36.2555 17.6497 36.4373C17.503 36.619 17.4234 36.8458 17.4242 37.0793C17.4139 37.1845 17.4272 37.2906 17.4634 37.3899C17.4996 37.4892 17.5576 37.5791 17.6332 37.6529C17.7088 37.7268 17.8 37.7827 17.9001 37.8165C18.0002 37.8503 18.1067 37.8612 18.2115 37.8483Z" fill="#5DCCB3"/>
<path id="Vector_8" d="M23.8325 35.2946C23.9377 35.282 24.0444 35.293 24.1449 35.3268C24.2454 35.3606 24.3371 35.4163 24.4134 35.4899C24.4896 35.5635 24.5485 35.6532 24.5858 35.7525C24.6231 35.8517 24.6378 35.958 24.6289 36.0636C24.6276 36.298 24.5461 36.5249 24.3978 36.7065C24.2496 36.888 24.0436 37.0133 23.8141 37.0614C23.7093 37.0743 23.6028 37.0634 23.5027 37.0296C23.4026 36.9958 23.3114 36.9399 23.2358 36.8661C23.1602 36.7922 23.1022 36.7023 23.066 36.6031C23.0298 36.5038 23.0165 36.3976 23.0269 36.2925C23.0277 36.0593 23.1079 35.8334 23.2544 35.652C23.4008 35.4706 23.6047 35.3446 23.8325 35.2946Z" fill="white"/>
<path id="Vector_9" d="M21.0312 35.6882C21.1364 35.6756 21.2432 35.6866 21.3437 35.7203C21.4441 35.7541 21.5358 35.8098 21.6121 35.8835C21.6883 35.9571 21.7472 36.0468 21.7845 36.146C21.8218 36.2452 21.8365 36.3515 21.8276 36.4572C21.8263 36.6916 21.7448 36.9184 21.5965 37.1C21.4483 37.2816 21.2423 37.4069 21.0129 37.455C20.908 37.4679 20.8016 37.457 20.7015 37.4232C20.6013 37.3893 20.5101 37.3334 20.4345 37.2596C20.3589 37.1858 20.3009 37.0959 20.2647 36.9966C20.2286 36.8973 20.2152 36.7912 20.2256 36.686C20.2247 36.4524 20.3044 36.2257 20.4511 36.044C20.5978 35.8622 20.8027 35.7366 21.0312 35.6882Z" fill="white"/>
<g id="Group 399">
<path id="Vector_10" d="M23.9516 25.6092C24.0564 25.5964 24.1629 25.6073 24.263 25.6411C24.3631 25.6749 24.4543 25.7308 24.5299 25.8046C24.6055 25.8785 24.6635 25.9684 24.6997 26.0676C24.7359 26.1669 24.7492 26.2731 24.7389 26.3782C24.738 26.6114 24.6578 26.8373 24.5113 27.0187C24.3649 27.2 24.161 27.3261 23.9332 27.3761C23.828 27.3887 23.7213 27.3777 23.6208 27.3439C23.5203 27.3101 23.4286 27.2544 23.3524 27.1808C23.2761 27.1072 23.2172 27.0175 23.1799 26.9182C23.1426 26.819 23.1279 26.7127 23.1368 26.6071C23.1398 26.3731 23.2219 26.1471 23.3699 25.9659C23.5179 25.7846 23.7229 25.6589 23.9516 25.6092Z" fill="white"/>
<path id="Vector_11" d="M40.3017 20.4458C40.371 20.4356 40.4417 20.4414 40.5084 20.4628C40.5751 20.4842 40.636 20.5206 40.6864 20.5693C40.7369 20.6179 40.7754 20.6775 40.7992 20.7433C40.823 20.8092 40.8313 20.8797 40.8235 20.9493L40.7503 27.3026C40.7529 27.4586 40.7 27.6105 40.6011 27.7312C40.5022 27.8519 40.3637 27.9336 40.2102 27.9617L16.6738 31.2757C16.6043 31.2826 16.5342 31.2742 16.4684 31.251C16.4025 31.2279 16.3426 31.1905 16.2928 31.1416C16.243 31.0927 16.2046 31.0334 16.1803 30.968C16.1559 30.9026 16.1463 30.8326 16.152 30.763L16.2252 24.4006C16.2262 24.2479 16.2793 24.1001 16.376 23.9819C16.4726 23.8636 16.6067 23.782 16.7562 23.7506L40.3017 20.4458ZM40.3017 27.3667L40.375 21.0134L40.32 20.9676L16.7562 24.2724L16.7013 24.3365L16.628 30.6898L16.6738 30.7447L40.2193 27.4308L40.2743 27.3667" fill="white"/>
<path id="Vector_12" d="M38.9284 23.7051L38.9192 25.06L30.2773 26.2684L30.2957 24.9226L38.9284 23.7051Z" fill="white"/>
<path id="Vector_13" d="M19.0309 27.6248C19.258 27.1731 19.1345 26.6523 18.755 26.4615C18.3756 26.2708 17.8839 26.4823 17.6568 26.934C17.4297 27.3858 17.5532 27.9066 17.9327 28.0974C18.3121 28.2881 18.8038 28.0766 19.0309 27.6248Z" fill="white"/>
<path id="Vector_14" d="M21.1502 26.0028C21.2551 25.9899 21.3615 26.0008 21.4616 26.0346C21.5617 26.0685 21.653 26.1244 21.7286 26.1982C21.8041 26.272 21.8622 26.3619 21.8983 26.4612C21.9345 26.5605 21.9479 26.6666 21.9375 26.7718C21.9345 27.0057 21.8524 27.2318 21.7044 27.413C21.5564 27.5942 21.3514 27.72 21.1227 27.7696C21.0182 27.7808 20.9125 27.7687 20.8132 27.7343C20.7138 27.6998 20.6233 27.6439 20.5481 27.5704C20.4729 27.497 20.4149 27.4078 20.3781 27.3093C20.3413 27.2108 20.3268 27.1054 20.3354 27.0006C20.3384 26.7667 20.4206 26.5407 20.5685 26.3594C20.7165 26.1782 20.9216 26.0525 21.1502 26.0028Z" fill="white"/>
</g>
<g id="Group 398">
<path id="Vector_15" d="M24.0615 15.9235C24.1667 15.9109 24.2734 15.9219 24.3739 15.9557C24.4744 15.9895 24.5661 16.0452 24.6424 16.1188C24.7186 16.1924 24.7775 16.2821 24.8148 16.3814C24.8521 16.4806 24.8668 16.5869 24.8579 16.6925C24.855 16.9265 24.7728 17.1525 24.6248 17.3337C24.4768 17.515 24.2718 17.6407 24.0432 17.6904C23.9383 17.7032 23.8318 17.6923 23.7317 17.6585C23.6316 17.6247 23.5404 17.5688 23.4648 17.495C23.3892 17.4211 23.3312 17.3312 23.295 17.232C23.2588 17.1327 23.2455 17.0265 23.2559 16.9214C23.2533 16.6873 23.3323 16.4597 23.4793 16.2776C23.6263 16.0955 23.8321 15.9703 24.0615 15.9235Z" fill="white"/>
<path id="Vector_16" d="M19.1417 17.9398C19.3688 17.4881 19.2453 16.9672 18.8659 16.7765C18.4864 16.5857 17.9947 16.7973 17.7676 17.249C17.5405 17.7007 17.664 18.2215 18.0435 18.4123C18.4229 18.6031 18.9146 18.3915 19.1417 17.9398Z" fill="white"/>
<path id="Vector_17" d="M40.4114 10.7328C40.4819 10.7226 40.5538 10.7287 40.6216 10.7506C40.6894 10.7725 40.7513 10.8096 40.8025 10.859C40.8538 10.9085 40.893 10.9691 40.9173 11.036C40.9415 11.103 40.9501 11.1747 40.9424 11.2455L40.8691 17.5988C40.8678 17.7527 40.8133 17.9015 40.7149 18.02C40.6164 18.1384 40.4801 18.2192 40.329 18.2487L16.7835 21.581C16.7149 21.5878 16.6456 21.5795 16.5804 21.5569C16.5153 21.5342 16.4559 21.4977 16.4062 21.4498C16.3566 21.4019 16.318 21.3438 16.293 21.2795C16.2681 21.2153 16.2574 21.1463 16.2617 21.0775L16.3441 14.6693C16.3429 14.515 16.3951 14.3651 16.4919 14.245C16.5887 14.1248 16.724 14.0419 16.875 14.0102L40.4114 10.7328ZM40.4114 17.6628L40.4846 11.3096V11.2638L16.8659 14.5869L16.8109 14.651L16.7377 21.0042L16.7926 21.0592L40.329 17.7452L40.3839 17.6811" fill="white"/>
<path id="Vector_18" d="M39.0474 14.019L39.0291 15.3739L30.3872 16.5823L30.4055 15.2366L39.0474 14.019Z" fill="white"/>
<path id="Vector_19" d="M21.2602 16.3173C21.3651 16.3044 21.4715 16.3153 21.5716 16.3491C21.6717 16.3829 21.7629 16.4388 21.8385 16.5126C21.9141 16.5865 21.9722 16.6764 22.0083 16.7756C22.0445 16.8749 22.0579 16.9811 22.0475 17.0862C22.0421 17.3151 21.9597 17.5354 21.8134 17.7115C21.6672 17.8877 21.4658 18.0093 21.2419 18.0566C21.137 18.0695 21.0306 18.0586 20.9305 18.0248C20.8303 17.991 20.7391 17.9351 20.6635 17.8612C20.5879 17.7874 20.5299 17.6975 20.4937 17.5982C20.4576 17.4989 20.4442 17.3928 20.4546 17.2876C20.4583 17.0583 20.5402 16.8372 20.6867 16.6607C20.8332 16.4843 21.0355 16.3631 21.2602 16.3173Z" fill="white"/>
</g>
</g>
</g>
<path id="Union" fill-rule="evenodd" clip-rule="evenodd" d="M32.9815 2.01508L32.9685 2.00853L6.64915 5.70697L6.90203 5.84317L6.64915 5.71595C6.6487 5.71604 6.64824 5.71613 6.64778 5.71623C6.49649 5.73591 6.35065 5.78565 6.21886 5.86253L6.22351 5.86486C6.15472 5.9016 6.0889 5.94365 6.02665 5.99061L6.02976 5.99218L6.02966 5.99225L6.02666 5.99074C6.01574 5.9999 6.00502 6.0093 5.99451 6.01893C5.90112 6.09189 5.81562 6.17557 5.73995 6.26879L5.73889 6.2701C5.72301 6.28888 5.70798 6.30834 5.69385 6.32843C5.49461 6.59924 5.38636 6.92702 5.38582 7.26439L5.00134 39.7436L13.8669 44.2038L5.00136 39.7528C4.99074 39.9749 5.04258 40.1955 5.15099 40.3897C5.2594 40.5839 5.42005 40.7438 5.61471 40.8513L14.4946 45.3096C14.3 45.2021 14.1393 45.0421 14.0309 44.848C13.9225 44.6538 13.8707 44.4332 13.8813 44.211L14.2658 11.7307L14.1652 11.6801L14.2657 11.7305L14.2657 11.7305L14.2657 11.7305L14.2658 11.7293C14.2672 11.5743 14.2918 11.4204 14.339 11.2728L14.339 11.2728C14.3656 11.198 14.3961 11.1247 14.4305 11.0531L14.4305 11.0531C14.4555 10.9924 14.4861 10.9342 14.522 10.8793L14.5221 10.8793V10.8885L14.6319 10.7328L14.6253 10.7295L14.6254 10.7295L14.6319 10.7327L14.7509 10.6229L14.7312 10.6129C14.7402 10.6039 14.7493 10.5951 14.7585 10.5863H14.7601L14.8738 10.4868C15.0644 10.3378 15.2878 10.2334 15.5277 10.1836C15.5282 10.1836 15.5286 10.1835 15.529 10.1835L15.5289 10.1834C15.529 10.1834 15.529 10.1834 15.5291 10.1834L15.5203 10.1789L41.8484 6.47595L41.7405 6.42167L41.8484 6.47584L41.8494 6.47573C41.9015 6.46985 41.9537 6.46649 42.006 6.46567C42.071 6.46626 42.1358 6.47279 42.1996 6.48511H42.178L42.3794 6.54919L42.3015 6.51007C42.3385 6.52105 42.3749 6.53404 42.4106 6.54902C42.4309 6.55756 42.4511 6.56675 42.4709 6.57657L42.4162 6.54902H42.4343L33.5544 2.0816H33.5307C33.4673 2.05513 33.4016 2.03526 33.3347 2.02214L33.3255 2.01757C33.212 1.995 33.0953 1.99417 32.9815 2.01508Z" fill="url(#paint0_linear_216_1258)"/>
</g>
</g>
<defs>
<linearGradient id="paint0_linear_216_1258" x1="5" y1="11" x2="34.5" y2="36" gradientUnits="userSpaceOnUse">
<stop stop-color="#2DA388"/>
<stop offset="0.505208" stop-color="#115B57"/>
<stop offset="1" stop-color="#0B3C43"/>
</linearGradient>
</defs>
</svg>
